<?xml version="1.0" encoding="UTF-8" standalone="no"?>
<svg
   xmlns:dc="http://purl.org/dc/elements/1.1/"
   xmlns:cc="http://creativecommons.org/ns#"
   xmlns:rdf="http://www.w3.org/1999/02/22-rdf-syntax-ns#"
   xmlns:svg="http://www.w3.org/2000/svg"
   xmlns="http://www.w3.org/2000/svg"
   viewBox="0 0 1600 1600"
   height="1600"
   width="1600"
   xml:space="preserve"
   id="svg2"
   version="1.1"><metadata
     id="metadata8"><rdf:RDF><cc:Work
         rdf:about=""><dc:format>image/svg+xml</dc:format><dc:type
           rdf:resource="http://purl.org/dc/dcmitype/StillImage" /></cc:Work></rdf:RDF></metadata><defs
     id="defs6"><clipPath
       id="clipPath18"
       clipPathUnits="userSpaceOnUse"><path
         id="path16"
         d="M 0,1200 H 1200 V 0 H 0 Z" /></clipPath></defs><g
     transform="matrix(1.3333333,0,0,-1.3333333,0,1600)"
     id="g10"><g
       id="g12"><g
         clip-path="url(#clipPath18)"
         id="g14"><g
           transform="translate(629.2803,1033.7393)"
           id="g20"><path
             id="path22"
             style="fill:#020202;fill-opacity:1;fill-rule:evenodd;stroke:none"
             d="m 0,0 -137.574,-137.574 v -60.777 -21.329 -73.65 -144.931 c -29.715,26.975 -48.356,65.922 -48.356,109.288 0,38.237 14.49,73.04 38.286,99.229 v 23.082 c -33.62,-30.057 -54.811,-73.737 -54.811,-122.311 0,-60.381 32.74,-113.205 81.405,-141.687 v 6.907 8.263 4.239 157.921 86.634 19.409 42.869 l 104.526,104.525 v -120.998 c 6.133,-0.332 11.941,-1.545 16.524,-2.794 z" /></g><g
           transform="translate(590.8799,868.8203)"
           id="g24"><path
             id="path26"
             style="fill:#020202;fill-opacity:1;fill-rule:evenodd;stroke:none"
             d="m 0,0 c -26.05,0 -50.689,-6.103 -72.58,-16.939 v -18.609 c 21.421,12.109 46.18,19.024 72.58,19.024 81.577,0 147.532,-65.953 147.532,-147.53 0,-35.328 -12.382,-67.715 -33.034,-93.093 v 136.713 l -61.956,35.769 -14.142,8.166 -16.524,9.541 -7.316,4.224 -37.738,21.788 v -268.828 -7.333 -9.361 c 7.574,-1.074 15.31,-1.642 23.178,-1.642 13.237,0 26.108,1.584 38.442,4.553 v 17.026 c -0.014,0 -0.028,0 -0.041,-0.014 v 199.852 l -16.525,9.54 v -164.428 h 0.033 v -48.391 c -7.147,-1.063 -14.461,-1.616 -21.908,-1.616 -2.231,0 -4.449,0.055 -6.655,0.152 v 2.79 47.065 192.012 l 23.793,-13.736 4.737,-2.736 30.667,-17.705 v -0.003 l 45.432,-26.229 v -144.439 -3.596 -8.261 -9.323 c 40.091,29.93 66.082,77.738 66.082,131.54 0,90.507 -73.548,164.054 -164.056,164.054 z" /></g><g
           transform="translate(236.3994,253.5381)"
           id="g28"><path
             id="path30"
             style="fill:#020202;fill-opacity:1;fill-rule:nonzero;stroke:none"
             d="M 0,0 V -14.669 H -3.677 V 17.932 H 0 V 3.446 h 18.816 v 14.486 h 3.678 V -14.669 H 18.816 V 0 Z" /></g><g
           transform="translate(273.9702,249.7178)"
           id="g32"><path
             id="path34"
             style="fill:#020202;fill-opacity:1;fill-rule:nonzero;stroke:none"
             d="m 0,0 c -1.204,-0.897 -1.809,-2.128 -1.809,-3.678 0,-0.774 0.164,-1.461 0.49,-2.046 0.326,-0.591 0.761,-1.094 1.319,-1.515 0.557,-0.422 1.203,-0.741 1.93,-0.959 0.728,-0.218 1.489,-0.32 2.298,-0.32 1.115,0 2.155,0.164 3.134,0.483 0.971,0.326 1.822,0.782 2.549,1.352 0.727,0.579 1.298,1.258 1.719,2.054 0.415,0.788 0.626,1.665 0.626,2.63 V 0.326 C 11.358,0.578 10.332,0.809 9.17,1.026 8.007,1.244 6.688,1.353 5.2,1.353 2.943,1.353 1.21,0.904 0,0 M 1.148,9.897 C -0.014,9.571 -1.156,9.143 -2.271,8.619 l -1.074,2.93 c 1.333,0.626 2.685,1.115 4.052,1.469 1.366,0.353 2.937,0.53 4.704,0.53 3.29,0 5.818,-0.81 7.592,-2.441 1.768,-1.631 2.652,-4.045 2.652,-7.239 v -14.717 h -3.447 v 3.63 c -0.836,-1.088 -1.964,-2.047 -3.371,-2.883 -1.414,-0.842 -3.195,-1.257 -5.337,-1.257 -1.114,0 -2.208,0.157 -3.283,0.463 -1.067,0.312 -2.032,0.781 -2.889,1.42 -0.849,0.639 -1.536,1.42 -2.046,2.352 -0.51,0.932 -0.768,2.032 -0.768,3.304 0,1.278 0.245,2.399 0.748,3.378 0.496,0.979 1.203,1.795 2.114,2.447 0.917,0.653 2.005,1.149 3.263,1.489 1.257,0.34 2.644,0.51 4.167,0.51 1.549,0 2.902,-0.089 4.051,-0.279 1.149,-0.184 2.264,-0.435 3.351,-0.741 V 3.82 c 0,2.175 -0.625,3.807 -1.883,4.914 -1.257,1.102 -3.018,1.653 -5.288,1.653 -1.428,0 -2.726,-0.163 -3.889,-0.49" /></g><g
           transform="translate(316.6182,239.6299)"
           id="g36"><path
             id="path38"
             style="fill:#020202;fill-opacity:1;fill-rule:nonzero;stroke:none"
             d="m 0,0 c -1.543,-0.877 -3.439,-1.318 -5.71,-1.318 -1.767,0 -3.406,0.333 -4.908,0.999 -1.509,0.666 -2.814,1.57 -3.915,2.698 -1.101,1.136 -1.965,2.461 -2.583,3.983 -0.619,1.524 -0.931,3.134 -0.931,4.847 0,1.707 0.312,3.324 0.931,4.86 0.618,1.543 1.482,2.883 2.583,4.032 1.101,1.148 2.406,2.052 3.915,2.725 1.502,0.667 3.141,1 4.908,1 1.149,0 2.189,-0.109 3.12,-0.327 0.931,-0.217 1.788,-0.517 2.563,-0.91 0.775,-0.381 1.488,-0.843 2.141,-1.373 0.653,-0.524 1.258,-1.088 1.815,-1.673 L 1.557,17.028 c -0.966,0.993 -2.013,1.849 -3.14,2.563 -1.136,0.714 -2.529,1.067 -4.174,1.067 -1.21,0 -2.339,-0.238 -3.399,-0.721 -1.054,-0.475 -1.971,-1.141 -2.746,-1.998 -0.775,-0.85 -1.38,-1.842 -1.815,-2.97 -0.435,-1.129 -0.653,-2.346 -0.653,-3.644 0,-1.305 0.224,-2.529 0.673,-3.671 0.455,-1.148 1.074,-2.148 1.863,-2.998 0.795,-0.849 1.726,-1.515 2.8,-1.998 1.067,-0.475 2.237,-0.721 3.514,-0.721 1.55,0 2.923,0.347 4.12,1.027 1.196,0.68 2.277,1.536 3.235,2.562 L 4.12,3.386 C 2.91,2.013 1.536,0.884 0,0" /></g><path
           id="path40"
           style="fill:#020202;fill-opacity:1;fill-rule:nonzero;stroke:none"
           d="m 329.771,262.939 h 3.589 v -24.07 h -3.589 z m -0.23,9.224 h 4.099 v -3.956 h -4.099 z" /><g
           transform="translate(348.1523,249.7178)"
           id="g42"><path
             id="path44"
             style="fill:#020202;fill-opacity:1;fill-rule:nonzero;stroke:none"
             d="m 0,0 c -1.203,-0.897 -1.808,-2.128 -1.808,-3.678 0,-0.774 0.163,-1.461 0.489,-2.046 0.327,-0.591 0.762,-1.094 1.319,-1.515 0.558,-0.422 1.203,-0.741 1.931,-0.959 0.727,-0.218 1.488,-0.32 2.297,-0.32 1.115,0 2.155,0.164 3.134,0.483 0.972,0.326 1.822,0.782 2.549,1.352 0.727,0.579 1.298,1.258 1.72,2.054 0.414,0.788 0.625,1.665 0.625,2.63 V 0.326 C 11.359,0.578 10.333,0.809 9.17,1.026 8.008,1.244 6.689,1.353 5.2,1.353 2.943,1.353 1.21,0.904 0,0 M 1.149,9.897 C -0.014,9.571 -1.155,9.143 -2.271,8.619 l -1.073,2.93 c 1.332,0.626 2.685,1.115 4.051,1.469 1.366,0.353 2.937,0.53 4.704,0.53 3.29,0 5.819,-0.81 7.593,-2.441 1.767,-1.631 2.651,-4.045 2.651,-7.239 v -14.717 h -3.447 v 3.63 c -0.835,-1.088 -1.964,-2.047 -3.371,-2.883 -1.414,-0.842 -3.195,-1.257 -5.336,-1.257 -1.115,0 -2.209,0.157 -3.283,0.463 -1.068,0.312 -2.033,0.781 -2.889,1.42 -0.85,0.639 -1.537,1.42 -2.046,2.352 -0.51,0.932 -0.769,2.032 -0.769,3.304 0,1.278 0.245,2.399 0.748,3.378 0.496,0.979 1.203,1.795 2.114,2.447 0.918,0.653 2.005,1.149 3.263,1.489 1.257,0.34 2.644,0.51 4.167,0.51 1.55,0 2.902,-0.089 4.051,-0.279 1.149,-0.184 2.264,-0.435 3.351,-0.741 V 3.82 c 0,2.175 -0.625,3.807 -1.882,4.914 -1.258,1.102 -3.018,1.653 -5.289,1.653 -1.428,0 -2.726,-0.163 -3.888,-0.49" /></g><g
           transform="translate(408.0937,262.9395)"
           id="g46"><path
             id="path48"
             style="fill:#020202;fill-opacity:1;fill-rule:nonzero;stroke:none"
             d="M 0,0 H 3.542 V -24.07 H 0 v 4.193 c -0.809,-1.305 -1.862,-2.42 -3.167,-3.33 -1.299,-0.918 -2.992,-1.374 -5.072,-1.374 -1.461,0 -2.76,0.231 -3.888,0.693 -1.135,0.47 -2.101,1.129 -2.889,1.986 -0.788,0.849 -1.4,1.869 -1.815,3.045 -0.421,1.183 -0.632,2.488 -0.632,3.916 V 0 h 3.589 v -14.058 c 0,-2.236 0.571,-4.004 1.72,-5.309 1.149,-1.305 2.794,-1.957 4.935,-1.957 1.027,0 1.985,0.177 2.868,0.537 0.884,0.353 1.645,0.87 2.278,1.536 0.639,0.666 1.142,1.468 1.516,2.399 0.373,0.931 0.557,1.958 0.557,3.073 z" /></g><g
           transform="translate(426.0737,238.8691)"
           id="g50"><path
             id="path52"
             style="fill:#020202;fill-opacity:1;fill-rule:nonzero;stroke:none"
             d="M 0,0 H -3.589 V 24.07 H 0 v -4.187 c 0.802,1.304 1.862,2.413 3.161,3.331 1.305,0.91 2.997,1.373 5.077,1.373 1.462,0 2.754,-0.232 3.889,-0.693 1.135,-0.47 2.093,-1.129 2.889,-1.986 0.788,-0.856 1.393,-1.869 1.815,-3.052 0.421,-1.176 0.632,-2.481 0.632,-3.909 V 0 h -3.589 v 14.063 c 0,2.237 -0.571,4.004 -1.72,5.31 -1.149,1.305 -2.794,1.95 -4.942,1.95 -1.02,0 -1.978,-0.177 -2.862,-0.529 C 3.467,20.434 2.698,19.924 2.046,19.257 1.393,18.584 0.89,17.789 0.53,16.857 0.177,15.927 0,14.9 0,13.785 Z" /></g><g
           transform="translate(483.2549,262.8506)"
           id="g54"><path
             id="path56"
             style="fill:#020202;fill-opacity:1;fill-rule:nonzero;stroke:none"
             d="m 0,0 v -3.072 h -7.593 v -20.909 h -3.582 v 20.909 h -3.31 v 3.12 h 3.31 v 2.094 c 0,2.643 0.625,4.642 1.883,6.008 1.257,1.367 3.052,2.053 5.384,2.053 0.836,0 1.556,-0.048 2.161,-0.142 0.605,-0.095 1.204,-0.252 1.795,-0.462 V 6.479 C -0.605,6.662 -1.196,6.812 -1.727,6.92 -2.25,7.029 -2.828,7.083 -3.446,7.083 -6.24,7.083 -7.64,5.37 -7.64,1.958 V 0 Z" /></g><g
           transform="translate(507.6992,262.9395)"
           id="g58"><path
             id="path60"
             style="fill:#020202;fill-opacity:1;fill-rule:nonzero;stroke:none"
             d="M 0,0 H 3.542 V -24.07 H 0 v 4.193 c -0.809,-1.305 -1.862,-2.42 -3.167,-3.33 -1.299,-0.918 -2.992,-1.374 -5.072,-1.374 -1.461,0 -2.76,0.231 -3.888,0.693 -1.135,0.47 -2.101,1.129 -2.889,1.986 -0.788,0.849 -1.4,1.869 -1.815,3.045 -0.421,1.183 -0.632,2.488 -0.632,3.916 V 0 h 3.589 v -14.058 c 0,-2.236 0.571,-4.004 1.72,-5.309 1.149,-1.305 2.794,-1.957 4.935,-1.957 1.027,0 1.985,0.177 2.868,0.537 0.884,0.353 1.645,0.87 2.278,1.536 0.639,0.666 1.142,1.468 1.516,2.399 0.373,0.931 0.557,1.958 0.557,3.073 z" /></g><g
           transform="translate(526.9365,245.7139)"
           id="g62"><path
             id="path64"
             style="fill:#020202;fill-opacity:1;fill-rule:nonzero;stroke:none"
             d="m 0,0 c 0,-1.488 0.367,-2.528 1.115,-3.12 0.748,-0.592 1.719,-0.884 2.936,-0.884 0.619,0 1.203,0.062 1.747,0.184 0.537,0.122 1.122,0.34 1.741,0.652 V -6.24 C 6.92,-6.58 6.261,-6.839 5.561,-7.009 4.86,-7.179 4.079,-7.267 3.208,-7.267 c -0.958,0 -1.862,0.129 -2.698,0.374 -0.836,0.251 -1.564,0.646 -2.169,1.19 -0.605,0.544 -1.073,1.251 -1.42,2.121 -0.34,0.863 -0.51,1.903 -0.51,3.12 V 14.064 H -6.94 v 3.162 h 3.351 v 7.273 H 0 V 17.226 H 7.634 V 14.064 H 0 Z" /></g><g
           transform="translate(560.7817,262.9395)"
           id="g66"><path
             id="path68"
             style="fill:#020202;fill-opacity:1;fill-rule:nonzero;stroke:none"
             d="M 0,0 H 3.542 V -24.07 H 0 v 4.193 c -0.809,-1.305 -1.862,-2.42 -3.167,-3.33 -1.299,-0.918 -2.991,-1.374 -5.071,-1.374 -1.462,0 -2.761,0.231 -3.889,0.693 -1.135,0.47 -2.1,1.129 -2.889,1.986 -0.788,0.849 -1.4,1.869 -1.815,3.045 -0.421,1.183 -0.632,2.488 -0.632,3.916 V 0 h 3.589 v -14.058 c 0,-2.236 0.571,-4.004 1.72,-5.309 1.149,-1.305 2.794,-1.957 4.935,-1.957 1.027,0 1.985,0.177 2.869,0.537 0.883,0.353 1.645,0.87 2.277,1.536 0.639,0.666 1.142,1.468 1.516,2.399 0.374,0.931 0.557,1.958 0.557,3.073 z" /></g><g
           transform="translate(578.7617,238.8691)"
           id="g70"><path
             id="path72"
             style="fill:#020202;fill-opacity:1;fill-rule:nonzero;stroke:none"
             d="M 0,0 H -3.589 V 24.07 H 0 v -6.281 c 0.435,0.992 0.979,1.91 1.625,2.746 0.652,0.843 1.4,1.564 2.236,2.162 0.843,0.612 1.754,1.067 2.746,1.373 0.999,0.313 2.067,0.455 3.215,0.421 V 20.63 H 9.544 C 8.239,20.63 7.008,20.399 5.839,19.93 4.677,19.468 3.657,18.768 2.794,17.837 1.924,16.905 1.237,15.75 0.741,14.363 0.245,12.983 0,11.393 0,9.591 Z" /></g><g
           transform="translate(615.0605,254.5303)"
           id="g74"><path
             id="path76"
             style="fill:#020202;fill-opacity:1;fill-rule:nonzero;stroke:none"
             d="m 0,0 c -0.448,1.143 -1.08,2.142 -1.89,2.998 -0.801,0.85 -1.754,1.523 -2.834,2.019 -1.088,0.496 -2.27,0.741 -3.542,0.741 -1.304,0 -2.501,-0.238 -3.588,-0.721 -1.088,-0.475 -2.006,-1.141 -2.767,-1.998 -0.762,-0.851 -1.36,-1.843 -1.795,-2.971 -0.435,-1.129 -0.652,-2.345 -0.652,-3.643 0,-1.306 0.224,-2.529 0.672,-3.671 0.456,-1.149 1.075,-2.142 1.863,-2.978 0.796,-0.836 1.733,-1.495 2.821,-1.991 1.088,-0.496 2.264,-0.748 3.542,-0.748 1.298,0 2.494,0.245 3.582,0.721 1.088,0.482 2.019,1.141 2.794,1.977 0.774,0.837 1.38,1.816 1.815,2.951 0.435,1.128 0.652,2.345 0.652,3.643 C 0.673,-2.372 0.449,-1.148 0,0 m 3.399,-8.47 c -0.639,-1.536 -1.515,-2.875 -2.63,-4.024 -1.123,-1.149 -2.455,-2.06 -4.004,-2.726 -1.557,-0.666 -3.229,-0.999 -5.031,-0.999 -1.801,0 -3.46,0.333 -4.982,0.999 -1.523,0.666 -2.841,1.571 -3.957,2.699 -1.121,1.135 -1.991,2.46 -2.609,3.983 -0.619,1.523 -0.932,3.134 -0.932,4.847 0,1.707 0.313,3.324 0.932,4.86 0.618,1.543 1.488,2.883 2.609,4.031 1.116,1.149 2.441,2.053 3.977,2.726 1.537,0.667 3.222,1 5.058,1 1.794,0 3.467,-0.333 5.003,-1 C -1.631,7.253 -0.306,6.355 0.816,5.228 1.931,4.093 2.801,2.76 3.42,1.244 c 0.625,-1.522 0.931,-3.14 0.931,-4.847 0,-1.706 -0.32,-3.331 -0.952,-4.867" /></g><g
           transform="translate(661.3047,242.5732)"
           id="g78"><path
             id="path80"
             style="fill:#020202;fill-opacity:1;fill-rule:nonzero;stroke:none"
             d="m 0,0 c -0.448,-0.891 -1.06,-1.638 -1.814,-2.264 -0.762,-0.618 -1.665,-1.093 -2.706,-1.421 -1.04,-0.326 -2.162,-0.489 -3.372,-0.489 -1.74,0 -3.494,0.32 -5.268,0.959 -1.767,0.632 -3.337,1.495 -4.696,2.583 l 1.814,2.563 c 1.306,-0.993 2.658,-1.754 4.072,-2.285 1.413,-0.523 2.834,-0.788 4.262,-0.788 1.462,0 2.651,0.34 3.582,1.02 0.938,0.686 1.4,1.618 1.4,2.801 v 0.088 c 0,0.591 -0.163,1.101 -0.489,1.536 -0.326,0.435 -0.768,0.816 -1.325,1.142 -0.558,0.326 -1.203,0.612 -1.931,0.864 -0.734,0.244 -1.489,0.482 -2.263,0.7 -0.932,0.278 -1.87,0.577 -2.815,0.903 -0.951,0.327 -1.801,0.741 -2.562,1.237 -0.762,0.497 -1.38,1.116 -1.863,1.864 -0.483,0.74 -0.72,1.672 -0.72,2.793 v 0.095 c 0,1.02 0.197,1.958 0.604,2.815 0.402,0.849 0.973,1.584 1.7,2.188 0.727,0.606 1.597,1.068 2.61,1.394 1.007,0.326 2.1,0.489 3.283,0.489 1.489,0 2.991,-0.237 4.514,-0.721 1.523,-0.475 2.903,-1.128 4.147,-1.93 l -1.632,-2.698 c -1.115,0.713 -2.291,1.278 -3.514,1.699 -1.231,0.415 -2.434,0.626 -3.61,0.626 -1.428,0 -2.562,-0.333 -3.398,-1 -0.843,-0.666 -1.258,-1.502 -1.258,-2.494 V 14.18 c 0,-0.564 0.17,-1.054 0.51,-1.468 0.34,-0.422 0.801,-0.789 1.373,-1.095 0.578,-0.312 1.237,-0.591 1.978,-0.836 0.747,-0.252 1.523,-0.503 2.331,-0.748 0.932,-0.278 1.856,-0.591 2.774,-0.93 0.911,-0.34 1.74,-0.776 2.488,-1.306 C -1.047,7.267 -0.448,6.635 0,5.887 0.449,5.146 0.674,4.229 0.674,3.141 V 3.046 C 0.674,1.896 0.449,0.884 0,0" /></g><g
           transform="translate(690.6846,254.5303)"
           id="g82"><path
             id="path84"
             style="fill:#020202;fill-opacity:1;fill-rule:nonzero;stroke:none"
             d="m 0,0 c -0.449,1.143 -1.081,2.142 -1.89,2.998 -0.802,0.85 -1.754,1.523 -2.835,2.019 -1.087,0.496 -2.27,0.741 -3.541,0.741 -1.305,0 -2.502,-0.238 -3.589,-0.721 -1.087,-0.475 -2.005,-1.141 -2.767,-1.998 -0.761,-0.851 -1.359,-1.843 -1.794,-2.971 -0.436,-1.129 -0.653,-2.345 -0.653,-3.643 0,-1.306 0.224,-2.529 0.673,-3.671 0.456,-1.149 1.074,-2.142 1.863,-2.978 0.795,-0.836 1.733,-1.495 2.82,-1.991 1.088,-0.496 2.264,-0.748 3.542,-0.748 1.299,0 2.495,0.245 3.582,0.721 1.088,0.482 2.02,1.141 2.794,1.977 0.775,0.837 1.38,1.816 1.816,2.951 0.434,1.128 0.652,2.345 0.652,3.643 C 0.673,-2.372 0.448,-1.148 0,0 m 3.398,-8.47 c -0.638,-1.536 -1.515,-2.875 -2.63,-4.024 -1.122,-1.149 -2.454,-2.06 -4.003,-2.726 -1.557,-0.666 -3.23,-0.999 -5.031,-0.999 -1.801,0 -3.46,0.333 -4.983,0.999 -1.522,0.666 -2.841,1.571 -3.956,2.699 -1.121,1.135 -1.991,2.46 -2.61,3.983 -0.619,1.523 -0.931,3.134 -0.931,4.847 0,1.707 0.312,3.324 0.931,4.86 0.619,1.543 1.489,2.883 2.61,4.031 1.115,1.149 2.44,2.053 3.976,2.726 1.537,0.667 3.223,1 5.058,1 1.795,0 3.467,-0.333 5.003,-1 C -1.632,7.253 -0.306,6.355 0.815,5.228 1.931,4.093 2.801,2.76 3.419,1.244 c 0.626,-1.522 0.932,-3.14 0.932,-4.847 0,-1.706 -0.32,-3.331 -0.953,-4.867" /></g><g
           transform="translate(720.166,242.5732)"
           id="g86"><path
             id="path88"
             style="fill:#020202;fill-opacity:1;fill-rule:nonzero;stroke:none"
             d="m 0,0 c -0.449,-0.891 -1.061,-1.638 -1.815,-2.264 -0.761,-0.618 -1.665,-1.093 -2.706,-1.421 -1.04,-0.326 -2.162,-0.489 -3.372,-0.489 -1.74,0 -3.494,0.32 -5.267,0.959 -1.768,0.632 -3.338,1.495 -4.697,2.583 l 1.814,2.563 c 1.306,-0.993 2.658,-1.754 4.072,-2.285 1.414,-0.523 2.834,-0.788 4.262,-0.788 1.462,0 2.651,0.34 3.582,1.02 0.939,0.686 1.4,1.618 1.4,2.801 v 0.088 c 0,0.591 -0.163,1.101 -0.489,1.536 -0.326,0.435 -0.767,0.816 -1.325,1.142 -0.558,0.326 -1.203,0.612 -1.931,0.864 -0.734,0.244 -1.488,0.482 -2.263,0.7 -0.932,0.278 -1.869,0.577 -2.815,0.903 -0.951,0.327 -1.801,0.741 -2.562,1.237 -0.761,0.497 -1.38,1.116 -1.863,1.864 -0.482,0.74 -0.72,1.672 -0.72,2.793 v 0.095 c 0,1.02 0.197,1.958 0.605,2.815 0.401,0.849 0.972,1.584 1.699,2.188 0.728,0.606 1.598,1.068 2.611,1.394 1.006,0.326 2.1,0.489 3.283,0.489 1.488,0 2.99,-0.237 4.514,-0.721 1.522,-0.475 2.902,-1.128 4.146,-1.93 l -1.632,-2.698 c -1.114,0.713 -2.291,1.278 -3.514,1.699 -1.23,0.415 -2.434,0.626 -3.61,0.626 -1.427,0 -2.562,-0.333 -3.398,-1 -0.843,-0.666 -1.258,-1.502 -1.258,-2.494 V 14.18 c 0,-0.564 0.17,-1.054 0.51,-1.468 0.34,-0.422 0.802,-0.789 1.373,-1.095 0.578,-0.312 1.237,-0.591 1.978,-0.836 0.748,-0.252 1.523,-0.503 2.331,-0.748 0.932,-0.278 1.857,-0.591 2.774,-0.93 0.911,-0.34 1.74,-0.776 2.488,-1.306 C -1.047,7.267 -0.449,6.635 0,5.887 0.448,5.146 0.673,4.229 0.673,3.141 V 3.046 C 0.673,1.896 0.448,0.884 0,0" /></g><g
           transform="translate(734.6719,245.7139)"
           id="g90"><path
             id="path92"
             style="fill:#020202;fill-opacity:1;fill-rule:nonzero;stroke:none"
             d="m 0,0 c 0,-1.488 0.367,-2.528 1.115,-3.12 0.747,-0.592 1.72,-0.884 2.937,-0.884 0.618,0 1.203,0.062 1.746,0.184 0.537,0.122 1.122,0.34 1.74,0.652 V -6.24 C 6.92,-6.58 6.261,-6.839 5.561,-7.009 4.86,-7.179 4.078,-7.267 3.208,-7.267 c -0.958,0 -1.862,0.129 -2.698,0.374 -0.836,0.251 -1.564,0.646 -2.168,1.19 -0.606,0.544 -1.074,1.251 -1.421,2.121 -0.34,0.863 -0.51,1.903 -0.51,3.12 V 14.064 H -6.94 v 3.162 h 3.351 v 7.273 H 0 V 17.226 H 7.634 V 14.064 H 0 Z" /></g><g
           transform="translate(768.3408,252.2324)"
           id="g94"><path
             id="path96"
             style="fill:#020202;fill-opacity:1;fill-rule:nonzero;stroke:none"
             d="m 0,0 c -0.096,1.088 -0.32,2.128 -0.674,3.12 -0.352,0.993 -0.849,1.863 -1.481,2.61 -0.632,0.742 -1.408,1.34 -2.312,1.795 -0.91,0.449 -1.97,0.673 -3.174,0.673 -1.047,0 -2.019,-0.211 -2.916,-0.632 -0.897,-0.415 -1.679,-0.993 -2.359,-1.719 -0.68,-0.735 -1.237,-1.591 -1.665,-2.583 -0.436,-1 -0.714,-2.08 -0.836,-3.264 z m -14.486,-6.124 c 0.496,-1.006 1.135,-1.863 1.91,-2.563 0.775,-0.693 1.645,-1.223 2.61,-1.577 0.959,-0.36 1.972,-0.537 3.026,-0.537 1.678,0 3.113,0.306 4.309,0.931 1.19,0.619 2.284,1.441 3.283,2.468 l 2.23,-2.005 c -1.21,-1.366 -2.59,-2.461 -4.14,-3.283 -1.556,-0.824 -3.48,-1.231 -5.778,-1.231 -1.645,0 -3.194,0.299 -4.656,0.904 -1.461,0.605 -2.733,1.461 -3.828,2.563 -1.094,1.1 -1.963,2.427 -2.61,3.983 -0.645,1.55 -0.965,3.256 -0.965,5.118 0,1.741 0.285,3.379 0.864,4.916 0.571,1.536 1.373,2.874 2.392,4.003 1.026,1.135 2.243,2.026 3.657,2.678 1.414,0.652 2.957,0.98 4.636,0.98 1.768,0 3.352,-0.333 4.752,-1 C -1.4,9.551 -0.218,8.646 0.74,7.498 1.706,6.35 2.434,4.997 2.93,3.446 3.426,1.896 3.677,0.231 3.677,-1.536 v -0.51 c 0,-0.19 -0.021,-0.388 -0.047,-0.604 h -19.047 c 0.122,-1.306 0.435,-2.461 0.931,-3.474" /></g><g
           transform="translate(784.6816,238.8691)"
           id="g98"><path
             id="path100"
             style="fill:#020202;fill-opacity:1;fill-rule:nonzero;stroke:none"
             d="M 0,0 H -3.589 V 24.07 H 0 v -4.187 c 0.803,1.304 1.863,2.413 3.161,3.331 1.305,0.91 2.998,1.373 5.078,1.373 1.461,0 2.753,-0.232 3.888,-0.693 1.136,-0.47 2.094,-1.129 2.89,-1.986 0.788,-0.856 1.393,-1.869 1.814,-3.052 0.422,-1.176 0.632,-2.481 0.632,-3.909 V 0 h -3.589 v 14.063 c 0,2.237 -0.571,4.004 -1.72,5.31 -1.148,1.305 -2.794,1.95 -4.941,1.95 -1.02,0 -1.979,-0.177 -2.862,-0.529 C 3.467,20.434 2.699,19.924 2.046,19.257 1.394,18.584 0.891,17.789 0.53,16.857 0.177,15.927 0,14.9 0,13.785 Z" /></g><path
           id="path102"
           style="fill:#020202;fill-opacity:1;fill-rule:nonzero;stroke:none"
           d="m 812.898,262.939 h 3.59 v -24.07 h -3.59 z m -0.23,9.224 h 4.099 v -3.956 h -4.099 z" /><g
           transform="translate(847.5732,254.7275)"
           id="g104"><path
             id="path106"
             style="fill:#020202;fill-opacity:1;fill-rule:nonzero;stroke:none"
             d="m 0,0 c -0.455,1.142 -1.067,2.128 -1.842,2.943 -0.775,0.816 -1.679,1.442 -2.699,1.876 -1.026,0.429 -2.113,0.646 -3.263,0.646 -1.114,0 -2.195,-0.217 -3.235,-0.666 -1.04,-0.448 -1.972,-1.074 -2.794,-1.876 -0.822,-0.809 -1.475,-1.781 -1.958,-2.923 -0.482,-1.142 -0.72,-2.406 -0.72,-3.8 0,-1.387 0.238,-2.665 0.72,-3.82 0.483,-1.162 1.136,-2.142 1.958,-2.943 0.822,-0.802 1.754,-1.428 2.794,-1.876 1.04,-0.45 2.121,-0.673 3.235,-0.673 1.15,0 2.243,0.21 3.283,0.625 1.041,0.415 1.938,1.019 2.7,1.808 0.76,0.788 1.366,1.76 1.821,2.916 0.449,1.162 0.673,2.468 0.673,3.915 C 0.673,-2.427 0.449,-1.142 0,0 m 3.372,-9.108 c -0.652,-1.55 -1.51,-2.863 -2.583,-3.937 -1.067,-1.067 -2.298,-1.89 -3.678,-2.467 -1.38,-0.571 -2.8,-0.857 -4.261,-0.857 -1.116,0 -2.142,0.137 -3.074,0.415 -0.93,0.278 -1.767,0.652 -2.514,1.122 -0.748,0.462 -1.421,1.006 -2.027,1.624 -0.604,0.626 -1.141,1.278 -1.603,1.958 v -4.608 h -3.59 v 33.994 h 3.59 V 3.372 c 0.496,0.713 1.047,1.399 1.651,2.053 0.606,0.652 1.279,1.217 2.026,1.699 0.741,0.476 1.577,0.87 2.488,1.162 0.918,0.292 1.937,0.443 3.053,0.443 1.426,0 2.834,-0.28 4.213,-0.837 1.38,-0.564 2.618,-1.38 3.706,-2.447 C 1.85,4.378 2.72,3.065 3.372,1.509 4.024,-0.041 4.351,-1.809 4.351,-3.8 c 0,-1.985 -0.327,-3.752 -0.979,-5.308" /></g><path
           id="path108"
           style="fill:#020202;fill-opacity:1;fill-rule:nonzero;stroke:none"
           d="m 861.658,272.863 h 3.589 v -33.994 h -3.589 z" /><g
           transform="translate(893.9736,252.2324)"
           id="g110"><path
             id="path112"
             style="fill:#020202;fill-opacity:1;fill-rule:nonzero;stroke:none"
             d="m 0,0 c -0.095,1.088 -0.319,2.128 -0.673,3.12 -0.353,0.993 -0.849,1.863 -1.481,2.61 -0.633,0.742 -1.408,1.34 -2.312,1.795 -0.911,0.449 -1.971,0.673 -3.175,0.673 -1.046,0 -2.018,-0.211 -2.916,-0.632 -0.896,-0.415 -1.678,-0.993 -2.358,-1.719 -0.68,-0.735 -1.237,-1.591 -1.665,-2.583 -0.436,-1 -0.714,-2.08 -0.837,-3.264 z m -14.485,-6.124 c 0.496,-1.006 1.134,-1.863 1.91,-2.563 0.775,-0.693 1.644,-1.223 2.61,-1.577 0.958,-0.36 1.972,-0.537 3.025,-0.537 1.679,0 3.113,0.306 4.31,0.931 1.19,0.619 2.283,1.441 3.283,2.468 l 2.23,-2.005 c -1.21,-1.366 -2.59,-2.461 -4.14,-3.283 -1.556,-0.824 -3.48,-1.231 -5.778,-1.231 -1.646,0 -3.195,0.299 -4.656,0.904 -1.462,0.605 -2.733,1.461 -3.828,2.563 -1.094,1.1 -1.964,2.427 -2.61,3.983 -0.645,1.55 -0.965,3.256 -0.965,5.118 0,1.741 0.285,3.379 0.864,4.916 0.57,1.536 1.373,2.874 2.392,4.003 1.026,1.135 2.243,2.026 3.657,2.678 1.414,0.652 2.957,0.98 4.636,0.98 1.768,0 3.352,-0.333 4.752,-1 C -1.4,9.551 -0.217,8.646 0.741,7.498 1.707,6.35 2.434,4.997 2.93,3.446 3.427,1.896 3.678,0.231 3.678,-1.536 v -0.51 c 0,-0.19 -0.021,-0.388 -0.048,-0.604 h -19.047 c 0.123,-1.306 0.436,-2.461 0.932,-3.474" /></g><g
           transform="translate(170.7686,413.0986)"
           id="g114"><path
             id="path116"
             style="fill:#020202;fill-opacity:1;fill-rule:nonzero;stroke:none"
             d="m 0,0 -23.846,-41.064 h 47.692 z m 107.035,-102.528 h -47.42 l -11.923,20.399 h -95.377 l -11.923,-20.399 H -106.77 L 0,81.87 Z" /></g><g
           transform="translate(405.7759,402.9023)"
           id="g118"><path
             id="path120"
             style="fill:#020202;fill-opacity:1;fill-rule:nonzero;stroke:none"
             d="m 0,0 c 0,7.042 -1.326,13.649 -3.977,19.814 -2.651,6.166 -6.315,11.583 -10.998,16.254 -4.677,4.67 -10.108,8.327 -16.287,10.964 -6.186,2.645 -12.814,3.97 -19.877,3.97 h -20.399 v -102.27 h 20.399 c 7.063,0 13.691,1.36 19.877,4.092 6.179,2.733 11.61,6.39 16.287,10.965 4.683,4.581 8.347,9.999 10.998,16.253 C -1.326,-13.697 0,-7.05 0,0 m -51.139,92.066 c 12.719,0 24.682,-2.433 35.906,-7.287 11.209,-4.86 20.97,-11.44 29.27,-19.74 8.3,-8.3 14.88,-18.06 19.74,-29.277 4.854,-11.216 7.287,-23.18 7.287,-35.899 0,-12.717 -2.433,-24.681 -7.287,-35.897 -4.86,-11.217 -11.44,-20.978 -19.74,-29.278 -8.3,-8.299 -18.061,-14.879 -29.27,-19.733 -11.224,-4.86 -23.187,-7.287 -35.906,-7.287 h -61.464 V 92.066 Z" /></g><g
           transform="translate(601.8262,310.5703)"
           id="g122"><path
             id="path124"
             style="fill:#020202;fill-opacity:1;fill-rule:nonzero;stroke:none"
             d="m 0,0 h -82.136 -20.4 -20.399 v 143.334 41.064 H -82.136 0 V 143.334 H -82.136 V 112.86 H 0 V 71.796 H -82.136 V 41.064 l 82.136,0 z" /></g><g
           transform="translate(774.0303,494.9687)"
           id="g126"><path
             id="path128"
             style="fill:#020202;fill-opacity:1;fill-rule:nonzero;stroke:none"
             d="m 0,0 v -41.064 h -84.515 c -4.235,0 -7.858,-1.496 -10.863,-4.473 -3.004,-2.971 -4.5,-6.56 -4.5,-10.768 0,-4.2 1.496,-7.79 4.5,-10.767 3.005,-2.977 6.628,-4.466 10.863,-4.466 h 28.883 c 7.77,0 15.098,-1.461 21.984,-4.384 6.892,-2.924 12.895,-6.947 18.02,-12.08 5.118,-5.132 9.136,-11.114 12.052,-17.925 2.917,-6.818 4.371,-14.119 4.371,-21.909 0,-7.79 -1.454,-15.138 -4.371,-22.045 -2.916,-6.906 -6.934,-12.922 -12.052,-18.054 -5.125,-5.132 -11.128,-9.163 -18.02,-12.086 -6.886,-2.923 -14.214,-4.377 -21.984,-4.377 h -83.991 v 41.064 h 83.991 c 4.235,0 7.852,1.495 10.856,4.507 3.005,2.997 4.506,6.62 4.506,10.862 0,4.235 -1.501,7.852 -4.506,10.862 -3.004,2.999 -6.621,4.5 -10.856,4.5 h -28.883 c -7.777,0 -15.056,1.456 -21.854,4.372 -6.805,2.916 -12.767,6.933 -17.885,12.058 -5.125,5.119 -9.142,11.08 -12.058,17.878 -2.911,6.798 -4.372,14.085 -4.372,21.861 0,7.77 1.461,15.105 4.372,21.991 2.916,6.885 6.933,12.888 12.058,18.013 5.118,5.126 11.08,9.143 17.885,12.06 6.798,2.909 14.077,4.37 21.854,4.37 z" /></g><g
           transform="translate(940.9453,494.9687)"
           id="g130"><path
             id="path132"
             style="fill:#020202;fill-opacity:1;fill-rule:nonzero;stroke:none"
             d="m 0,0 v -41.064 h -84.515 c -4.234,0 -7.858,-1.496 -10.862,-4.473 -3.005,-2.971 -4.5,-6.56 -4.5,-10.768 0,-4.2 1.495,-7.79 4.5,-10.767 3.004,-2.977 6.628,-4.466 10.862,-4.466 h 28.883 c 7.771,0 15.098,-1.461 21.984,-4.384 6.893,-2.924 12.895,-6.947 18.02,-12.08 5.119,-5.132 9.137,-11.114 12.053,-17.925 2.916,-6.818 4.371,-14.119 4.371,-21.909 0,-7.79 -1.455,-15.138 -4.371,-22.045 -2.916,-6.906 -6.934,-12.922 -12.053,-18.054 -5.125,-5.132 -11.127,-9.163 -18.02,-12.086 -6.886,-2.923 -14.213,-4.377 -21.984,-4.377 h -83.991 v 41.064 h 83.991 c 4.236,0 7.852,1.495 10.857,4.507 3.004,2.997 4.506,6.62 4.506,10.862 0,4.235 -1.502,7.852 -4.506,10.862 -3.005,2.999 -6.621,4.5 -10.857,4.5 h -28.883 c -7.776,0 -15.056,1.456 -21.854,4.372 -6.804,2.916 -12.766,6.933 -17.885,12.058 -5.125,5.119 -9.142,11.08 -12.058,17.878 -2.91,6.798 -4.372,14.085 -4.372,21.861 0,7.77 1.462,15.105 4.372,21.991 2.916,6.885 6.933,12.888 12.058,18.013 5.119,5.126 11.081,9.143 17.885,12.06 6.798,2.909 14.078,4.37 21.854,4.37 z" /></g><g
           transform="translate(1108.1328,403.2959)"
           id="g134"><path
             id="path136"
             style="fill:#020202;fill-opacity:1;fill-rule:nonzero;stroke:none"
             d="m 0,0 c 0,7.063 -1.373,13.69 -4.105,19.87 -2.747,6.186 -6.411,11.617 -10.999,16.294 -4.595,4.684 -10.027,8.348 -16.294,10.998 -6.274,2.651 -12.943,3.97 -20.005,3.97 -7.063,0 -13.691,-1.319 -19.869,-3.97 -6.187,-2.65 -11.618,-6.314 -16.294,-10.998 -4.684,-4.677 -8.341,-10.108 -10.993,-16.294 -2.651,-6.18 -3.976,-12.807 -3.976,-19.87 0,-7.062 1.325,-13.69 3.976,-19.869 2.652,-6.186 6.309,-11.617 10.993,-16.294 4.676,-4.684 10.107,-8.348 16.294,-10.991 6.178,-2.652 12.806,-3.977 19.869,-3.977 7.062,0 13.731,1.325 20.005,3.977 6.267,2.643 11.699,6.307 16.294,10.991 4.588,4.677 8.252,10.108 10.999,16.294 C -1.373,-13.69 0,-7.062 0,0 m -51.403,92.203 c 12.717,0 24.681,-2.433 35.905,-7.287 11.209,-4.86 21.011,-11.44 29.406,-19.74 8.388,-8.3 14.968,-18.062 19.74,-29.278 C 38.413,24.683 40.8,12.719 40.8,0 c 0,-12.718 -2.387,-24.682 -7.152,-35.897 -4.772,-11.217 -11.352,-20.978 -19.74,-29.278 -8.395,-8.3 -18.197,-14.88 -29.406,-19.733 -11.224,-4.861 -23.188,-7.287 -35.905,-7.287 -12.712,0 -24.683,2.426 -35.899,7.287 -11.216,4.853 -20.977,11.433 -29.277,19.733 -8.3,8.3 -14.88,18.061 -19.733,29.278 -4.861,11.215 -7.288,23.179 -7.288,35.897 0,12.719 2.427,24.683 7.288,35.898 4.853,11.216 11.433,20.978 19.733,29.278 8.3,8.3 18.061,14.88 29.277,19.74 11.216,4.854 23.187,7.287 35.899,7.287" /></g></g></g></g></svg>